<?xml version='1.0' encoding='iso-8859-1'?>
<!DOCTYPE svg PUBLIC '-//W3C//DTD SVG 1.1//EN' 'http://www.w3.org/Graphics/SVG/1.1/DTD/svg11.dtd'>
<!-- Uploaded to: SVG Repo, www.svgrepo.com, Generator: SVG Repo Mixer Tools -->
<svg fill="#000000" height="800px" width="800px" version="1.1" xmlns="http://www.w3.org/2000/svg" viewBox="0 0 447.478 447.478" xmlns:xlink="http://www.w3.org/1999/xlink" enable-background="new 0 0 447.478 447.478">
  <g>
    <path d="m406.452,1.388c-3.053-1.796-6.841-1.837-9.939-0.116-24.759,13.753-54.322,13.753-79.065,0.008-3.026-1.698-6.731-1.699-9.765-0.013-24.761,13.756-54.325,13.757-79.15-0.034-2.974-1.631-6.585-1.636-9.572-0.024-0.035,0.019-0.07,0.038-0.105,0.058-24.762,13.757-54.328,13.757-79.089,0-0.222-0.123-0.46-0.243-0.69-0.349-2.895-1.332-6.251-1.204-9.036,0.344-24.765,13.761-54.334,13.76-79.098,0-3.097-1.72-6.874-1.675-9.928,0.122-3.054,1.794-4.929,5.072-4.929,8.616v407.417c0,16.576 13.485,30.062 30.062,30.062h315.184c16.576,0 30.062-13.485 30.062-30.062v-407.417c-0.001-3.543-1.888-6.815-4.942-8.612zm-271.554,19.887c28.171,13.765 60.655,13.765 88.826,0 28.177,13.769 60.663,13.769 88.829,0.001 24.903,12.17 53.175,13.586 78.84,4.252v27.672h-335.307v-27.678c25.67,9.328 53.923,7.912 78.812-4.247zm246.433,406.203h-315.184c-5.548,0-10.062-4.514-10.062-10.062v-344.216h335.307v344.217c0.001,5.548-4.513,10.061-10.061,10.061z"/>
    <path d="m319.943,105.23h-128.28c-24.174,0-44.205,18.027-47.387,41.341h-17.549c-26.377,0-47.836,21.459-47.836,47.836v8.591c0,5.523 4.477,10 10,10 1.886,0 3.42,1.534 3.42,3.42v141.067c0,14.951 12.164,27.114 27.115,27.114h142.881c14.951,0 27.115-12.164 27.115-27.114v-14.225h37.822c14.948,0 27.11-12.162 27.11-27.11v-141.07c0-1.886 1.534-3.42 3.42-3.42 5.523,0 10-4.477 10-10v-8.59c-0.001-26.379-21.458-47.84-47.831-47.84zm-50.522,111.189v141.067c0,3.923-3.191,7.114-7.115,7.114h-142.881c-3.923,0-7.115-3.191-7.115-7.114v-141.067c0-9.339-5.495-17.418-13.42-21.177v-0.834c0-15.349 12.487-27.836 27.836-27.836h128.278c15.349,0 27.836,12.487 27.836,27.836v0.835c-7.925,3.757-13.419,11.837-13.419,21.176zm78.352-62.515c-7.926,3.758-13.42,11.837-13.42,21.176v141.07c0,3.92-3.189,7.11-7.11,7.11h-37.822v-106.841c0-1.886 1.534-3.42 3.42-3.42 5.523,0 10-4.477 10-10v-8.591c0-26.377-21.459-47.836-47.836-47.836h-90.408c2.936-12.226 13.953-21.341 27.067-21.341h128.28c15.346,0 27.83,12.489 27.83,27.84v0.833z"/>
  </g>
</svg>